<svg xmlns="http://www.w3.org/2000/svg" width="40.64" height="49.456" viewBox="0 0 40.64 49.456"><defs><style>.a{fill:none;stroke:#707070;}</style></defs><g transform="matrix(0.875, 0.485, -0.485, 0.875, 21.556, 0.61)"><path class="a" d="M1339.8-4872.308s12.161-9.27,14.512-19c1.4-5.329,1.829-12.672-1.485-17.715a81.4,81.4,0,0,0-5.01-6.807l12.33.116-5.12,5.22-9.2,9.375,1.336-14.057,2.7,3.014s-2.609-2.524-2.4-1l4.358,1.745-5.651,8.773L1358.8-4915.1h-10.377l8.568.6-5.6,5.637-2.973-5.637,7.306.211-7.306.73h6.782l-6.782.69h5.727l-5.727.177,5.927-.177-6.1.177,5.454.253-6.443,6.292,3.113-4.843-2.473,2.8,3.277-2.8-4,3.47,2.234-3.7-1.751,1.759.463-1.963h1.474l7.743-3.678-8.764,7.738-1.782,2.61.47-7.411h6.7l-5.537-1,4.6,1.544-4.6-1.065,4.837,1.065-5.779,7.373" transform="translate(-1339.802 4915.826)"/></g></svg>